<svg width="44" height="44" viewBox="0 0 44 44" fill="none" xmlns="http://www.w3.org/2000/svg">
<path d="M22.0788 0.000402848C9.90363 -0.0728461 0 9.85239 0 22.0291C0 34.1228 9.80554 43.8322 21.8634 43.998C34.3463 44.1695 44.4076 33.506 43.9826 21.9924C44.4461 11.5352 35.6234 0.0832898 22.0788 0.000402848ZM11.2192 22.2103C12.933 19.5579 14.6237 16.8901 16.3432 14.2415C16.5144 13.9794 16.8106 13.1814 17.151 14.0179C18.1647 16.5065 19.3052 18.9969 17.8088 21.7515C17.2837 22.7191 16.7337 23.2762 15.5777 23.0892C15.3776 23.0565 15.1738 23.0468 14.968 23.0468C14.6256 23.0468 14.2775 23.0757 13.9351 23.0757C13.5543 23.0757 13.1753 23.07 12.7945 23.0661C12.4137 23.0642 12.0348 23.0661 11.6559 23.0815C10.8019 23.1182 10.8423 22.7943 11.2192 22.2103ZM36.0177 26.1059C33.8885 26.9406 32.9903 28.8508 31.8882 30.5838C30.6957 32.4555 29.1319 33.3788 26.8219 33.2824C23.4367 33.1436 20.0419 33.2863 16.6509 33.2323C12.7157 33.1706 9.73437 30.3852 9.29199 26.5339C9.19774 25.7204 9.41316 25.4756 10.2075 25.4949C11.8597 25.5354 13.5139 25.5199 15.1661 25.4987C15.7066 25.493 15.9393 25.6086 16.0605 26.2332C16.3355 27.65 17.1241 28.2012 18.5686 28.2205C19.1187 28.2282 19.6803 28.155 20.2189 28.2359C21.3037 28.3979 21.5402 27.968 21.5287 26.9271C21.5172 25.9787 21.3171 25.651 20.34 25.7493C19.6899 25.8149 18.734 26.0944 18.4186 25.6028C18.0954 25.0997 18.8379 24.4328 19.2033 23.9162C21.5903 20.5409 20.8921 17.104 19.4707 13.6498C19.0706 12.6763 18.5936 11.7357 18.0781 10.6176C18.6744 10.7603 19.0802 10.849 19.4822 10.953C21.1133 11.381 21.1094 11.381 21.5364 9.82347C21.7153 9.17194 22.1423 8.80955 22.8366 8.86738C23.5387 8.92714 24.0214 9.38205 23.8868 10.0355C23.5367 11.753 24.585 12.6069 25.7179 13.536C27.1316 14.6965 28.2741 16.1094 29.0877 17.7748C29.8609 19.3574 29.8417 20.9284 28.83 22.3433C27.6952 23.9335 26.8912 25.944 24.3061 25.8515C23.5502 25.8245 24.0522 26.9117 23.9253 27.4765C23.833 27.887 23.9253 28.2186 24.485 28.2263C26.0526 28.2475 27.6548 28.4306 28.7376 26.8924C29.1473 26.3103 29.7628 26.0693 30.4399 25.8862C32.0709 25.4486 33.6827 24.9378 35.3119 24.4906C35.6311 24.4019 36.1581 24.0434 36.2889 24.5099C36.4294 25.0111 36.7063 25.8361 36.0177 26.1059Z" fill="#FF583D"/>
</svg>
