<svg width="93" height="83" viewBox="0 0 93 83" fill="none" xmlns="http://www.w3.org/2000/svg">
<g opacity="0.5">
<path d="M26.6542 47.7836C17.3189 66.2147 -0.476448 77.6244 0.00976562 79.8673C0.495979 82.1103 19.2638 75.1864 40.0737 76.4542C60.9809 77.6244 83.8329 86.9862 90.6399 81.0376C97.5441 75.0889 88.2088 53.9273 76.7342 34.4235C65.2595 14.8222 51.6456 -3.21883 44.3524 0.486892C37.0592 4.09509 36.0868 29.45 26.6542 47.7836Z" fill="#FF583D"/>
<path d="M45.3516 52.584V50.312L52.6316 43.832H56.2796V50.504H58.3436V52.584H56.2796V55H53.3676V52.584H45.3516ZM53.3676 46.248H53.2876L48.5996 50.424V50.504H53.3676V46.248ZM59.6338 52.104H62.9458V55H59.6338V52.104Z" fill="white"/>
</g>
</svg>
