<svg width="24" height="19" viewBox="0 0 24 19" fill="none" xmlns="http://www.w3.org/2000/svg">
<path d="M20.2175 1.509C18.6953 0.810579 17.063 0.295988 15.3563 0.00123671C15.3252 -0.00445402 15.2942 0.00977279 15.2782 0.0381798C15.0682 0.411575 14.8357 0.898645 14.6729 1.28151C12.8372 1.00668 11.011 1.00668 9.21299 1.28151C9.05011 0.890156 8.80914 0.411575 8.59825 0.0381798C8.58225 0.0107057 8.55119 -0.00352111 8.52012 0.00123671C6.8144 0.295009 5.18209 0.809599 3.65894 1.509C3.64574 1.51469 3.63445 1.52416 3.62694 1.53647C0.530812 6.16205 -0.317386 10.674 0.0986899 15.1299C0.100556 15.1517 0.112823 15.1725 0.129756 15.1858C2.17249 16.686 4.15128 17.5967 6.09326 18.2004C6.12433 18.2098 6.15726 18.1985 6.17704 18.1729C6.6364 17.5456 7.0459 16.8841 7.397 16.1885C7.41771 16.1477 7.39793 16.0994 7.35558 16.0833C6.70604 15.8369 6.08757 15.5364 5.49261 15.1953C5.44554 15.1679 5.44177 15.1005 5.4851 15.0683C5.6103 14.9745 5.73554 14.8769 5.85509 14.7783C5.87673 14.7603 5.90687 14.7565 5.93229 14.7679C9.84079 16.5524 14.0722 16.5524 17.9346 14.7679C17.96 14.7556 17.9901 14.7594 18.0127 14.7773C18.1323 14.8759 18.2575 14.9745 18.3836 15.0683C18.4269 15.1005 18.4241 15.1678 18.3771 15.1953C17.7821 15.5431 17.1636 15.8368 16.5132 16.0823C16.4708 16.0984 16.452 16.1477 16.4727 16.1884C16.8314 16.8831 17.2409 17.5445 17.6917 18.1719C17.7106 18.1984 17.7445 18.2098 17.7755 18.2003C19.7269 17.5967 21.7057 16.6859 23.7485 15.1858C23.7664 15.1725 23.7777 15.1526 23.7795 15.1308C24.2775 9.97927 22.9455 5.50435 20.2485 1.53741C20.2419 1.52416 20.2307 1.51469 20.2175 1.509ZM7.98076 12.4167C6.80404 12.4167 5.83443 11.3364 5.83443 10.0096C5.83443 8.68286 6.7852 7.60251 7.98076 7.60251C9.18566 7.60251 10.1459 8.69233 10.1271 10.0096C10.1271 11.3364 9.17623 12.4167 7.98076 12.4167ZM15.9164 12.4167C14.7397 12.4167 13.7701 11.3364 13.7701 10.0096C13.7701 8.68286 14.7209 7.60251 15.9164 7.60251C17.1213 7.60251 18.0815 8.69233 18.0627 10.0096C18.0627 11.3364 17.1214 12.4167 15.9164 12.4167Z" fill="#FF583D"/>
</svg>
