<svg width="217" height="113" viewBox="0 0 217 113" fill="none" xmlns="http://www.w3.org/2000/svg">
<g clip-path="url(#clip0_11_51)">
<path fill-rule="evenodd" clip-rule="evenodd" d="M41.9501 24.2083L13.0062 37.5767L12.9883 73.5362H41.9501V24.2083ZM203.103 73.5362H160.431V31.7892H203.103V73.5362ZM150.518 73.5362H112.086V73.4545H53.7779V5.80284H94.8534V36.2964H112.086V31.3961H150.518V73.5362Z" fill="white"/>
<path fill-rule="evenodd" clip-rule="evenodd" d="M37.0095 73.2975H18.7139V66.1888L34.1119 60.4932L37.0095 63.0092V73.2975ZM191.796 61.0957V73.2975H171.546V61.0957H191.796ZM106.031 72.8507H98.0861V59.5269H106.031V72.8507ZM205.855 35.8459V49.3611H158.35V35.8459H205.855ZM79.733 46.8478H59.9809V41.0462H83.5101L79.733 46.8478ZM150.696 27.7224H111.613C113.298 18.6212 121.411 11.7116 131.154 11.7116C140.896 11.7116 149.01 18.6212 150.696 27.7224Z" fill="#00BFF3"/>
<path d="M153.507 50.1793C157.887 50.1793 161.438 46.6286 161.438 42.2486C161.438 37.8686 157.887 34.3179 153.507 34.3179C149.127 34.3179 145.576 37.8686 145.576 42.2486C145.576 46.6286 149.127 50.1793 153.507 50.1793Z" fill="#FF715B"/>
<path d="M208.327 63.8695C212.707 63.8695 216.258 60.3188 216.258 55.9388C216.258 51.5588 212.707 48.0081 208.327 48.0081C203.947 48.0081 200.396 51.5588 200.396 55.9388C200.396 60.3188 203.947 63.8695 208.327 63.8695Z" fill="#FF715B"/>
<path d="M47.46 50.1793C51.84 50.1793 55.3907 46.6286 55.3907 42.2486C55.3907 37.8686 51.84 34.3179 47.46 34.3179C43.08 34.3179 39.5293 37.8686 39.5293 42.2486C39.5293 46.6286 43.08 50.1793 47.46 50.1793Z" fill="#FF715B"/>
<path d="M8.67388 64.0405C13.0539 64.0405 16.6046 60.4898 16.6046 56.1098C16.6046 51.7298 13.0539 48.1791 8.67388 48.1791C4.29386 48.1791 0.743164 51.7298 0.743164 56.1098C0.743164 60.4898 4.29386 64.0405 8.67388 64.0405Z" fill="#FF715B"/>
<path d="M38.611 62.7602C41.4591 62.7602 43.768 60.4514 43.768 57.6033C43.768 54.7552 41.4591 52.4464 38.611 52.4464C35.7629 52.4464 33.4541 54.7552 33.4541 57.6033C33.4541 60.4514 35.7629 62.7602 38.611 62.7602Z" fill="#FF715B"/>
<path d="M58.361 58.3015C61.2091 58.3015 63.518 55.9927 63.518 53.1446C63.518 50.2965 61.2091 47.9876 58.361 47.9876C55.5129 47.9876 53.2041 50.2965 53.2041 53.1446C53.2041 55.9927 55.5129 58.3015 58.361 58.3015Z" fill="#FF715B"/>
<path d="M143.193 58.3768C146.041 58.3768 148.35 56.068 148.35 53.2199C148.35 50.3718 146.041 48.0629 143.193 48.0629C140.345 48.0629 138.036 50.3718 138.036 53.2199C138.036 56.068 140.345 58.3768 143.193 58.3768Z" fill="#FF715B"/>
<path d="M77.0494 72.8507H69.106V59.5269H77.0494V72.8507ZM145.704 61.6752V67.4781H121.788V61.6752H145.704ZM118.69 36.2964L127.372 50.0989L78.1089 50.1793L87.5905 36.2964H118.69ZM200.397 25.2294V31.9845L191.231 31.9577L191.26 21.9195L200.397 25.2294ZM25.3345 13.7131C26.0698 14.9156 26.4923 16.3261 26.4923 17.8361C26.4916 19.9393 25.6558 21.9561 24.1687 23.4432C22.6815 24.9304 20.6647 25.7662 18.5616 25.7668C17.1382 25.7665 15.7411 25.3832 14.5169 24.6571C13.2926 23.931 12.2863 22.8889 11.6035 21.64L25.3345 13.7131ZM96.9075 1.28923V5.80155H51.6094V1.28923H96.9075Z" fill="#FF715B"/>
<path d="M22.3036 94.5737C23.5959 94.5737 24.6434 93.5262 24.6434 92.2339C24.6434 90.9417 23.5959 89.8942 22.3036 89.8942C21.0114 89.8942 19.9639 90.9417 19.9639 92.2339C19.9639 93.5262 21.0114 94.5737 22.3036 94.5737Z" fill="#F0C808"/>
<path d="M194.588 94.5737C195.88 94.5737 196.928 93.5262 196.928 92.2339C196.928 90.9417 195.88 89.8942 194.588 89.8942C193.296 89.8942 192.248 90.9417 192.248 92.2339C192.248 93.5262 193.296 94.5737 194.588 94.5737Z" fill="#F0C808"/>
<path d="M181.814 69.0379C182.675 69.0379 183.374 68.3395 183.374 67.4781C183.374 66.6166 182.675 65.9182 181.814 65.9182C180.952 65.9182 180.254 66.6166 180.254 67.4781C180.254 68.3395 180.952 69.0379 181.814 69.0379Z" fill="#F0C808"/>
<path d="M153.905 44.6535C155.197 44.6535 156.245 43.6059 156.245 42.3137C156.245 41.0215 155.197 39.974 153.905 39.974C152.613 39.974 151.565 41.0215 151.565 42.3137C151.565 43.6059 152.613 44.6535 153.905 44.6535Z" fill="#F0C808"/>
<path d="M106.783 67.7602C107.645 67.7602 108.343 67.0618 108.343 66.2003C108.343 65.3388 107.645 64.6405 106.783 64.6405C105.922 64.6405 105.224 65.3388 105.224 66.2003C105.224 67.0618 105.922 67.7602 106.783 67.7602Z" fill="#F0C808"/>
<path fill-rule="evenodd" clip-rule="evenodd" d="M115.855 64.8039H112.285V59.4299H115.855V64.8039ZM92.4623 64.8039H88.892V59.4299H92.4623V64.8039ZM196.842 58.8823H190.359V52.2791H196.842V58.8823ZM173.226 58.8823H166.868V52.2791H173.226V58.8823ZM127.773 49.9904C127.773 52.223 125.862 54.0368 123.506 54.0368C121.659 54.0368 120.085 52.9225 119.492 51.3639C118.899 52.9225 117.324 54.0368 115.477 54.0368C113.486 54.0368 111.812 52.7412 111.341 50.9912C110.872 52.7412 109.197 54.0368 107.207 54.0368C105.35 54.0368 103.768 52.9097 103.182 51.3397C102.595 52.9097 101.015 54.0368 99.1587 54.0368C97.1916 54.0368 95.5335 52.7719 95.0408 51.055C94.5468 52.7719 92.8887 54.0368 90.9229 54.0368C88.8537 54.0368 87.1254 52.6366 86.7373 50.7818C86.348 52.6366 84.6222 54.0368 82.5531 54.0368C80.1967 54.0368 78.2846 52.223 78.2846 49.9904H127.773ZM146.692 38.2086V45.0428L124.064 44.8922L119.85 38.2086H146.692ZM88.6406 27.7224H59.874V21.9208H88.6406V27.7224Z" fill="#F0C808"/>
<path d="M162.934 63.0091C165.782 63.0091 168.091 60.7003 168.091 57.8522C168.091 55.0041 165.782 52.6953 162.934 52.6953C160.086 52.6953 157.777 55.0041 157.777 57.8522C157.777 60.7003 160.086 63.0091 162.934 63.0091Z" fill="#FF715B"/>
<path d="M47.6366 44.6931C48.9289 44.6931 49.9764 43.6455 49.9764 42.3533C49.9764 41.0611 48.9289 40.0135 47.6366 40.0135C46.3444 40.0135 45.2969 41.0611 45.2969 42.3533C45.2969 43.6455 46.3444 44.6931 47.6366 44.6931Z" fill="#F0C808"/>
<path d="M14.7903 13.2715C15.6518 13.2715 16.3502 12.5731 16.3502 11.7116C16.3502 10.8501 15.6518 10.1518 14.7903 10.1518C13.9288 10.1518 13.2305 10.8501 13.2305 11.7116C13.2305 12.5731 13.9288 13.2715 14.7903 13.2715Z" fill="#F0C808"/>
<path d="M35.722 37.4057C36.5834 37.4057 37.2818 36.7073 37.2818 35.8459C37.2818 34.9844 36.5834 34.286 35.722 34.286C34.8605 34.286 34.1621 34.9844 34.1621 35.8459C34.1621 36.7073 34.8605 37.4057 35.722 37.4057Z" fill="#F0C808"/>
<path d="M27.6077 69.8983C28.4692 69.8983 29.1675 69.1999 29.1675 68.3384C29.1675 67.4769 28.4692 66.7786 27.6077 66.7786C26.7462 66.7786 26.0479 67.4769 26.0479 68.3384C26.0479 69.1999 26.7462 69.8983 27.6077 69.8983Z" fill="#F0C808"/>
<path d="M77.6936 67.7487C78.5551 67.7487 79.2535 67.0503 79.2535 66.1888C79.2535 65.3274 78.5551 64.629 77.6936 64.629C76.8322 64.629 76.1338 65.3274 76.1338 66.1888C76.1338 67.0503 76.8322 67.7487 77.6936 67.7487Z" fill="#F0C808"/>
<path d="M131.149 24.724C133.22 24.724 134.899 23.0449 134.899 20.9737C134.899 18.9025 133.22 17.2234 131.149 17.2234C129.077 17.2234 127.398 18.9025 127.398 20.9737C127.398 23.0449 129.077 24.724 131.149 24.724Z" fill="#F0C808"/>
<path d="M198.13 54.9495V58.7534C198.131 58.8385 198.116 58.9231 198.084 59.0021C198.052 59.0811 198.005 59.1528 197.945 59.2131C197.885 59.2734 197.813 59.3209 197.734 59.3529C197.655 59.3849 197.57 59.4007 197.485 59.3993H189.756C189.671 59.4005 189.587 59.3846 189.508 59.3525C189.429 59.3205 189.358 59.2729 189.298 59.2126C189.238 59.1524 189.19 59.0807 189.159 59.0018C189.127 58.9229 189.111 58.8384 189.113 58.7534V54.9495C189.113 52.7999 191.131 51.0384 193.621 51.0384C196.112 51.0384 198.13 52.7999 198.13 54.9495ZM196.842 58.1305V54.9712C196.842 53.5313 195.403 52.3493 193.621 52.3493C191.838 52.3493 190.401 53.5313 190.401 54.9712V58.1305H196.842ZM196.455 39.0689C198.152 39.0689 199.525 40.7015 199.525 42.7005C199.525 44.6982 198.152 46.3321 196.455 46.3321C194.76 46.3321 193.385 44.6982 193.385 42.7005C193.385 40.7015 194.76 39.0689 196.455 39.0689ZM198.237 42.7005C198.237 41.4113 197.442 40.3582 196.455 40.3582C195.467 40.3582 194.675 41.4113 194.675 42.7005C194.675 43.991 195.467 45.0428 196.455 45.0428C197.442 45.0428 198.237 43.991 198.237 42.7005ZM189.35 38.4664V46.8477H190.638V38.4664H189.35ZM183.122 39.0689C184.819 39.0689 186.194 40.7015 186.194 42.7005C186.194 44.6982 184.819 46.3333 183.122 46.3333C181.427 46.3333 180.054 44.6982 180.054 42.7005C180.054 40.7015 181.427 39.0689 183.122 39.0689ZM184.906 42.7005C184.906 41.4113 184.112 40.3582 183.122 40.3582C182.136 40.3582 181.342 41.4113 181.342 42.7005C181.342 43.991 182.136 45.0428 183.122 45.0428C184.09 45.0428 184.906 43.991 184.906 42.7005ZM174.194 39.0689C175.889 39.0689 177.262 40.7015 177.262 42.7005C177.262 44.6982 175.889 46.3333 174.194 46.3333C172.496 46.3333 171.122 44.6982 171.122 42.7005C171.122 40.7015 172.496 39.0689 174.194 39.0689ZM175.974 42.7005C175.974 41.4113 175.18 40.3582 174.194 40.3582C173.206 40.3582 172.41 41.4113 172.41 42.7005C172.41 43.991 173.206 45.0428 174.194 45.0428C175.18 45.0428 175.974 43.991 175.974 42.7005ZM166.679 38.4664V46.8477H167.967V38.4664H166.679ZM151.221 27.979C151.223 28.064 151.207 28.1486 151.176 28.2276C151.144 28.3065 151.097 28.3783 151.036 28.4386C150.976 28.4989 150.905 28.5465 150.826 28.5785C150.747 28.6105 150.663 28.6262 150.578 28.6249H111.935C111.85 28.6262 111.765 28.6105 111.687 28.5785C111.608 28.5465 111.536 28.4989 111.476 28.4386C111.416 28.3783 111.369 28.3065 111.337 28.2276C111.305 28.1486 111.29 28.064 111.292 27.979C111.292 19.0398 119.9 11.755 130.612 11.4767V5.93048C130.058 5.79074 129.567 5.46945 129.216 5.01784C128.866 4.56623 128.677 4.01033 128.68 3.43881C128.68 2.01938 129.839 0.859065 131.257 0.859065C132.673 0.859065 133.833 2.01938 133.833 3.43881C133.833 4.64252 133.017 5.65221 131.9 5.93048V11.455C142.612 11.755 151.221 19.0398 151.221 27.979ZM112.6 27.3356H149.913C149.504 19.2339 141.282 12.7443 131.257 12.7443C121.23 12.7443 113.008 19.2339 112.6 27.3356ZM138.449 17.1277V25.0367H139.735V17.1277H138.449ZM131.148 16.7192C133.639 16.7192 135.657 18.6314 135.657 20.9737C135.657 23.316 133.639 25.2294 131.148 25.2294C128.658 25.2294 126.64 23.316 126.64 20.9737C126.64 18.6314 128.658 16.7192 131.148 16.7192ZM134.369 20.9737C134.369 19.3411 132.932 18.0097 131.148 18.0097C129.368 18.0097 127.928 19.3411 127.928 20.9737C127.928 22.6088 129.368 23.9402 131.148 23.9402C132.932 23.9402 134.369 22.6088 134.369 20.9737ZM122.776 17.1277V25.0367H124.064V17.1277H122.776ZM116.765 61.1391V63.073C116.765 63.9754 116.315 64.7707 115.648 65.2659C115.199 65.5905 114.658 65.7635 114.104 65.7599C113.631 65.7599 113.203 65.631 112.816 65.437C112.392 65.2048 112.039 64.8627 111.793 64.4467C111.547 64.0307 111.418 63.5561 111.419 63.073V61.1391C111.418 60.6559 111.547 60.1814 111.793 59.7654C112.039 59.3494 112.392 59.0073 112.816 58.7751C113.21 58.5577 113.654 58.4464 114.104 58.4521C114.685 58.4519 115.25 58.6405 115.715 58.9895C116.179 59.3386 116.518 59.8291 116.68 60.3873C116.722 60.6234 116.765 60.8813 116.765 61.1391ZM115.477 63.073V61.1391C115.477 60.3656 114.856 59.7414 114.082 59.7414C113.502 59.7414 113.008 60.1064 112.793 60.6017C112.729 60.774 112.686 60.9464 112.686 61.1391V63.073C112.686 63.2657 112.729 63.438 112.793 63.6104C112.915 63.9104 113.138 64.1583 113.424 64.3116C113.709 64.4649 114.039 64.514 114.357 64.4504C114.675 64.3868 114.96 64.2145 115.165 63.9631C115.369 63.7117 115.48 63.397 115.477 63.073ZM93.3649 61.1391V63.073C93.3649 63.7851 93.0821 64.4682 92.5788 64.972C92.0754 65.4759 91.3927 65.7593 90.6805 65.7599C89.9686 65.7589 89.2863 65.4753 88.7834 64.9715C88.2805 64.4677 87.9983 63.7848 87.9986 63.073V61.1391C87.9986 59.6558 89.1998 58.4521 90.6805 58.4521C92.1625 58.4521 93.3649 59.6558 93.3649 61.1391ZM92.0769 63.073V61.1391C92.0769 60.9559 92.0408 60.7745 91.9707 60.6052C91.9006 60.4359 91.7978 60.2821 91.6683 60.1526C91.5387 60.023 91.3849 59.9202 91.2157 59.8501C91.0464 59.78 90.865 59.7439 90.6817 59.7439C90.4985 59.7439 90.3171 59.78 90.1478 59.8501C89.9786 59.9202 89.8248 60.023 89.6952 60.1526C89.5657 60.2821 89.4629 60.4359 89.3928 60.6052C89.3226 60.7745 89.2866 60.9559 89.2866 61.1391V63.073C89.2866 63.443 89.4336 63.7979 89.6952 64.0595C89.9568 64.3212 90.3117 64.4681 90.6817 64.4681C91.0518 64.4681 91.4066 64.3212 91.6683 64.0595C91.9299 63.7979 92.0769 63.443 92.0769 63.073ZM120.007 46.8477L115.306 39.6485H114.189L118.482 46.8477H120.007ZM112.837 42.7005C113.288 43.7102 113.245 44.6765 112.793 45.3441C112.514 45.7513 112.086 46.0525 111.505 46.1814C111.312 46.2261 111.098 46.2453 110.883 46.2453C108.929 46.2453 107.018 44.5271 106.718 42.7005C106.44 41.1317 107.469 40.0135 108.951 40.0135C109.81 40.0135 110.734 40.3786 111.505 41.0028C112.048 41.4294 112.488 41.973 112.793 42.5933C112.814 42.6261 112.829 42.6624 112.837 42.7005ZM111.505 44.3561C111.763 43.9476 111.806 43.3451 111.571 42.7209L111.505 42.5933C111.076 41.627 110.089 40.9173 109.208 40.9173C108.307 40.9173 107.748 41.6908 107.986 42.7209C108.242 43.8608 109.359 44.8922 110.433 44.8922C110.927 44.8705 111.292 44.6765 111.505 44.3561ZM102.36 39.6485L102.144 46.8477H103.67L103.455 39.6485H102.36ZM96.8867 40.0135C98.3674 40.0135 99.3771 41.1317 99.1179 42.7005C98.818 44.3778 97.1854 45.9887 95.4047 46.2261C95.255 46.242 95.1045 46.2484 94.9541 46.2453C94.6528 46.2453 94.3733 46.2031 94.1167 46.1176C92.7854 45.6874 92.2914 44.2259 92.9998 42.7005C93.2577 42.121 93.6444 41.6053 94.1167 41.1738C94.5057 40.837 94.939 40.5553 95.4047 40.3365C95.8974 40.1437 96.4144 40.0135 96.8867 40.0135ZM97.83 42.7005C98.0674 41.6691 97.5083 40.8956 96.6071 40.8956C96.1986 40.8956 95.7698 41.0462 95.383 41.304C94.9107 41.627 94.4818 42.121 94.2444 42.7005C94.1589 42.9366 94.095 43.1511 94.095 43.3668V43.7102C94.1588 44.3982 94.6094 44.8922 95.3613 44.8922H95.383C96.4782 44.8705 97.5721 43.8391 97.83 42.7005ZM90.5528 39.6485L85.8516 46.8477H87.3744L91.648 39.6485H90.5528ZM87.6118 10.0573C89.307 10.0573 90.6805 11.6899 90.6805 13.6889C90.6805 15.6865 89.307 17.3217 87.6118 17.3217C85.9154 17.3217 84.5406 15.6865 84.5406 13.6889C84.5406 11.6899 85.9154 10.0573 87.6118 10.0573ZM89.3925 13.6889C89.3925 12.3996 88.5985 11.3465 87.6118 11.3465C86.6251 11.3465 85.8299 12.3996 85.8299 13.6889C85.8299 14.9794 86.6251 16.0312 87.6118 16.0312C88.5985 16.0312 89.3925 14.9794 89.3925 13.6889ZM80.5057 9.45482V17.8361H81.7937V9.45482H80.5057ZM74.2791 10.0573C75.9768 10.0573 77.3503 11.6899 77.3503 13.6889C77.3503 15.6865 75.9768 17.3217 74.2791 17.3217C72.5839 17.3217 71.2105 15.6865 71.2105 13.6889C71.2105 11.6899 72.5839 10.0573 74.2791 10.0573ZM76.0623 13.6889C76.0623 12.3996 75.2671 11.3465 74.2791 11.3465C73.2924 11.3465 72.4984 12.3996 72.4984 13.6889C72.4984 14.9794 73.2924 16.0312 74.2791 16.0312C75.2467 16.0312 76.0623 14.9794 76.0623 13.6889ZM65.3502 10.0573C67.0453 10.0573 68.4188 11.6899 68.4188 13.6889C68.4188 15.6865 67.0453 17.3217 65.3502 17.3217C63.6525 17.3217 62.279 15.6865 62.279 13.6889C62.279 11.6899 63.6525 10.0573 65.3502 10.0573ZM67.1309 13.6889C67.1309 12.3996 66.3369 11.3465 65.3502 11.3465C64.3609 11.3465 63.567 12.3996 63.567 13.6889C63.567 14.9794 64.3609 16.0312 65.3502 16.0312C66.3369 16.0312 67.1309 14.9794 67.1309 13.6889ZM57.8343 9.45482V17.8361H59.1223V9.45482H57.8343ZM1.46028 56.1532C1.46192 57.9394 2.12537 59.6615 3.32249 60.9871C4.5196 62.3127 6.16547 63.1477 7.9422 63.3308V58.1726C7.52916 58.0195 7.17251 57.7443 6.91965 57.3835C6.66679 57.0228 6.5297 56.5937 6.52659 56.1532C6.52659 54.9712 7.49161 54.0049 8.67234 54.0049C9.85435 54.0049 10.8194 54.9712 10.8194 56.1532C10.8162 56.5939 10.6789 57.0231 10.4258 57.3838C10.1727 57.7445 9.81576 58.0197 9.40248 58.1726V63.3308C10.5598 63.2059 11.671 62.8083 12.6447 62.1705C13.117 61.8693 13.5459 61.5042 13.9327 61.0753C15.1872 59.7346 15.8857 57.9676 15.887 56.1315C15.8855 54.2959 15.187 52.5293 13.9327 51.189C13.5437 50.7787 13.1119 50.4111 12.6447 50.0925C11.467 49.3111 10.0857 48.8926 8.67234 48.8888C4.70252 48.9322 1.46028 52.1783 1.46028 56.1532ZM217 56.1532C216.998 58.326 216.181 60.419 214.711 62.0184C213.24 63.6179 211.223 64.6073 209.058 64.7911V72.8507H213.801C214.166 72.8507 214.446 73.1303 214.446 73.4953V92.3003C214.447 92.3853 214.431 92.4697 214.4 92.5484C214.368 92.6272 214.32 92.6987 214.26 92.7588C214.2 92.8188 214.128 92.8661 214.049 92.8979C213.971 92.9296 213.886 92.9452 213.801 92.9437H197.807C197.645 93.6786 197.239 94.3366 196.653 94.8095C196.068 95.2823 195.339 95.5418 194.586 95.5451C194.155 95.5448 193.727 95.4594 193.329 95.2939C192.93 95.1284 192.568 94.886 192.263 94.5806C191.958 94.2751 191.716 93.9126 191.551 93.5137C191.386 93.1148 191.302 92.6873 191.302 92.2556C191.306 91.3855 191.653 90.552 192.268 89.9364C192.883 89.3209 193.716 88.9731 194.586 88.9687C196.197 88.9687 197.549 90.129 197.829 91.6761H213.158V74.1412H3.84218V91.6544H19.0641C19.2054 90.8965 19.6064 90.2116 20.1982 89.7175C20.7899 89.2233 21.5354 88.9509 22.3063 88.947C23.1776 88.9477 24.013 89.2943 24.6289 89.9106C25.2447 90.527 25.5907 91.3626 25.5907 92.2339C25.5877 93.1045 25.2408 93.9387 24.6257 94.5548C24.0105 95.1709 23.1769 95.519 22.3063 95.5234C21.5539 95.5201 20.8249 95.2606 20.2396 94.7878C19.6542 94.3149 19.2473 93.6569 19.0858 92.9219H3.19884C3.11375 92.9235 3.02923 92.9079 2.95032 92.8761C2.87141 92.8442 2.79972 92.7968 2.73955 92.7366C2.67938 92.6764 2.63195 92.6048 2.60011 92.5258C2.56827 92.4469 2.55266 92.3624 2.55422 92.2773V73.4953C2.55422 73.1303 2.83376 72.8507 3.19884 72.8507H7.9422V64.8128C3.50008 64.449 0 60.7089 0 56.1749C0 51.383 3.88685 47.4936 8.67234 47.4936C10.1122 47.4936 11.4423 47.837 12.6447 48.4599V38.7243L9.72543 40.0773C9.72543 40.1654 9.74713 40.2509 9.74713 40.3582C9.74713 41.7763 8.58682 42.9366 7.17121 42.9366C6.4881 42.9346 5.83356 42.6623 5.35064 42.1791C4.86773 41.696 4.5957 41.0413 4.59402 40.3582C4.59402 38.94 5.75305 37.7797 7.17121 37.7797C8.0507 37.7797 8.80126 38.2099 9.27483 38.8749L25.9111 31.0744L22.3701 25.4018C20.5966 26.3155 18.5487 26.5445 16.6171 26.0451C15.5625 25.7857 14.5698 25.32 13.6963 24.6748C12.8228 24.0295 12.0857 23.2176 11.5278 22.2859C11.483 22.2141 11.4531 22.1341 11.4397 22.0505C11.4263 21.967 11.4297 21.8816 11.4498 21.7994C11.4699 21.7172 11.5063 21.6399 11.5567 21.572C11.6072 21.504 11.6707 21.4469 11.7435 21.4039L17.6255 17.8361L15.5002 14.419C15.2845 14.4854 15.0279 14.5045 14.7917 14.5045C14.4248 14.5052 14.0614 14.4334 13.7223 14.2933C13.3833 14.1531 13.0752 13.9474 12.8158 13.6879C12.5564 13.4284 12.3508 13.1203 12.2109 12.7811C12.0709 12.442 11.9993 12.0785 12.0001 11.7116C12.0001 10.1645 13.2459 8.9187 14.7917 8.9187C15.3589 8.91669 15.9132 9.08787 16.3804 9.40937C16.8477 9.73086 17.2056 10.1873 17.4064 10.7178C17.6073 11.2482 17.6414 11.8273 17.5042 12.3776C17.367 12.9279 17.0651 13.4233 16.6388 13.7974L18.7207 17.1698L24.8388 13.4961C24.9888 13.4111 25.166 13.3878 25.3328 13.431C25.4145 13.4518 25.4909 13.4891 25.5575 13.5407C25.624 13.5923 25.6792 13.6571 25.7196 13.731C26.7864 15.5118 27.1466 17.6279 26.729 19.6613C26.3114 21.6947 25.1464 23.4976 23.4641 24.7137L27.0714 30.5153L43.7306 22.7148C43.6801 22.5108 43.6515 22.302 43.6451 22.0919C43.6451 20.6724 44.8054 19.5121 46.221 19.5121C47.6379 19.5121 48.7969 20.6724 48.7969 22.0919C48.7969 23.51 47.6379 24.6703 46.221 24.6703C45.8672 24.6696 45.5173 24.5969 45.1926 24.4567C44.8678 24.3165 44.5749 24.1117 44.3318 23.8547L42.7873 24.5835V35.0059C44.2143 34.0441 45.8953 33.5287 47.6162 33.5252C49.6981 33.5252 51.5886 34.2541 53.091 35.4808V7.09079H50.9452C50.8602 7.09253 50.7757 7.07708 50.6968 7.04538C50.6179 7.01368 50.5462 6.96637 50.486 6.9063C50.4258 6.84623 50.3784 6.77463 50.3465 6.69578C50.3147 6.61694 50.299 6.53248 50.3006 6.44745V0.644618C50.3006 0.279547 50.5801 0 50.9452 0H97.53C97.8951 0 98.1746 0.279547 98.1746 0.644618V6.44745C98.1762 6.53248 98.1606 6.61694 98.1287 6.69578C98.0969 6.77463 98.0494 6.84623 97.9892 6.9063C97.929 6.96637 97.8573 7.01368 97.7784 7.04538C97.6995 7.07708 97.615 7.09253 97.53 7.09079H95.383V35.8458H111.484V32.042C111.484 31.6769 111.763 31.3961 112.128 31.3961H150.45C150.814 31.3961 151.093 31.6769 151.093 32.042V33.9758C151.992 33.6731 152.935 33.5209 153.884 33.5252C155.622 33.5259 157.32 34.0494 158.757 35.0276H159.787V32.0637C159.787 31.6973 160.067 31.4178 160.432 31.4178H190.595L190.508 22.3931L188.812 21.7689C188.624 21.9882 188.385 22.1568 188.115 22.2593C187.846 22.3617 187.555 22.3947 187.269 22.3552C186.983 22.3157 186.712 22.205 186.48 22.0332C186.249 21.8614 186.064 21.6341 185.943 21.3722C185.822 21.1103 185.769 20.8223 185.789 20.5345C185.809 20.2468 185.901 19.9686 186.056 19.7257C186.211 19.4827 186.425 19.2827 186.678 19.1441C186.931 19.0055 187.215 18.9328 187.503 18.9326C188.404 18.9326 189.156 19.6423 189.22 20.5448L203.389 25.7668C203.548 25.58 203.745 25.4296 203.967 25.3256C204.19 25.2217 204.432 25.1667 204.677 25.1643C205.622 25.1643 206.395 25.9379 206.395 26.885C206.394 27.3403 206.212 27.7765 205.89 28.0984C205.568 28.4204 205.132 28.6018 204.677 28.6032C204.236 28.6024 203.813 28.4328 203.493 28.129C203.174 27.8253 202.983 27.4107 202.96 26.9705L201.135 26.3042V31.4178H203.175C203.54 31.4178 203.819 31.6973 203.819 32.0637V35.0276H206.395C206.76 35.0276 207.04 35.3289 207.04 35.6735V47.5792C207.466 47.5182 207.897 47.4897 208.328 47.4936C213.113 47.4719 217 51.3613 217 56.1532ZM209.058 63.3308C210.835 63.1477 212.48 62.3127 213.678 60.9871C214.875 59.6615 215.538 57.9394 215.54 56.1532C215.54 52.1783 212.297 48.9322 208.328 48.9322C207.877 48.9322 207.447 48.9743 207.04 49.0407C206.059 49.2276 205.125 49.6072 204.291 50.1576C204.125 50.2597 203.967 50.3749 203.819 50.5023C203.332 50.8859 202.898 51.3338 202.531 51.8336C201.604 53.0741 201.106 54.5828 201.113 56.1315C201.115 57.6788 201.612 59.1848 202.531 60.4294C202.896 60.9234 203.325 61.3753 203.819 61.762C204.901 62.6348 206.214 63.1729 207.598 63.3104V58.1509C207.184 57.9983 206.827 57.7232 206.574 57.3624C206.321 57.0016 206.183 56.5723 206.181 56.1315C206.181 54.9495 207.147 53.9819 208.328 53.9819C209.508 53.9819 210.473 54.9495 210.473 56.1315C210.473 57.057 209.873 57.8496 209.058 58.1509V63.3308ZM207.598 72.8507V64.8128C206.257 64.7035 204.962 64.2764 203.819 63.567V72.8507H207.598ZM205.752 47.8587V36.2964H160.28C161.758 37.901 162.578 40.0031 162.578 42.1848C162.578 43.4678 162.293 44.7349 161.743 45.8943C161.194 47.0537 160.394 48.0765 159.401 48.8888H203.582C204.259 48.4557 204.988 48.1096 205.752 47.8587ZM202.531 72.8507V62.6007C201.626 61.788 200.902 60.7939 200.406 59.6831C199.911 58.5723 199.654 57.3696 199.654 56.1532C199.646 53.9289 200.5 51.7878 202.036 50.1793H161.098V51.9409C161.687 51.7496 162.303 51.6556 162.922 51.6626C164.189 51.6626 165.348 52.0494 166.314 52.7144C167.13 51.7047 168.481 51.0384 170.005 51.0384C172.496 51.0384 174.514 52.7999 174.514 54.9495V58.7534C174.516 58.8385 174.5 58.923 174.469 59.002C174.437 59.081 174.39 59.1527 174.33 59.213C174.269 59.2733 174.198 59.3209 174.119 59.3529C174.04 59.3849 173.956 59.4007 173.871 59.3993H168.717C168.352 60.6528 167.589 61.7537 166.544 62.5363C165.499 63.319 164.228 63.7412 162.922 63.7393C162.304 63.7351 161.689 63.641 161.098 63.4597V72.8507H171.08V61.1608C171.08 60.7945 171.36 60.5149 171.724 60.5149H191.905C192.27 60.5149 192.548 60.7945 192.548 61.1608V72.8507H202.531ZM202.531 35.0085V32.6853H161.098V35.0085H202.531ZM199.847 31.3961V25.8102L191.796 22.8437L191.883 31.3961H199.847ZM196.455 92.2339C196.468 91.9806 196.43 91.7273 196.342 91.4894C196.254 91.2516 196.118 91.0341 195.944 90.8502C195.769 90.6664 195.559 90.52 195.325 90.4201C195.092 90.3201 194.841 90.2686 194.588 90.2688C194.334 90.269 194.083 90.3208 193.85 90.4211C193.617 90.5213 193.407 90.668 193.233 90.8521C193.058 91.0362 192.923 91.2538 192.835 91.4919C192.748 91.7299 192.709 91.9832 192.723 92.2365C192.748 92.7145 192.956 93.1646 193.303 93.4939C193.651 93.8232 194.111 94.0066 194.59 94.0063C195.069 94.006 195.529 93.822 195.876 93.4922C196.223 93.1624 196.431 92.712 196.455 92.2339ZM191.26 72.8507V61.8054H182.459V64.9851C183.013 65.1258 183.503 65.4475 183.853 65.8992C184.203 66.3509 184.392 66.9067 184.39 67.4781C184.39 68.6831 183.574 69.6915 182.459 69.971V72.8507H191.26ZM183.102 67.4781C183.102 67.1364 182.966 66.8086 182.725 66.5669C182.483 66.3251 182.156 66.1892 181.814 66.1888C181.645 66.1885 181.477 66.2216 181.32 66.2863C181.164 66.351 181.022 66.446 180.902 66.5658C180.782 66.6856 180.688 66.8278 180.623 66.9844C180.559 67.141 180.526 67.3087 180.526 67.4781C180.525 67.6476 180.558 67.8157 180.622 67.9725C180.686 68.1294 180.781 68.2719 180.901 68.3919C181.021 68.5119 181.163 68.607 181.32 68.6717C181.477 68.7363 181.645 68.7692 181.814 68.7686C181.983 68.7687 182.151 68.7355 182.308 68.6706C182.464 68.6058 182.606 68.5107 182.726 68.3908C182.846 68.2709 182.941 68.1286 183.005 67.9719C183.07 67.8153 183.103 67.6475 183.102 67.4781ZM181.171 72.8507V69.971C180.616 69.831 180.125 69.5095 179.775 69.0577C179.424 68.6058 179.236 68.0497 179.238 67.4781C179.238 66.2743 180.054 65.2659 181.171 64.9851V61.8054H172.368V72.8507H181.171ZM173.226 58.1305V54.9712C173.226 53.5313 171.789 52.3493 170.005 52.3493C168.868 52.3493 167.86 52.8216 167.302 53.553C168.373 54.6775 168.972 56.1693 168.977 57.722C168.977 57.8522 168.977 58.0015 168.955 58.1305H173.226ZM167.495 58.1305C167.516 58.0015 167.516 57.8522 167.516 57.722C167.516 56.8195 167.257 55.9822 166.807 55.2508C166.508 54.7678 166.114 54.3512 165.649 54.0266C164.865 53.4491 163.916 53.1398 162.943 53.1446C162.298 53.1446 161.676 53.2735 161.117 53.5313C160.645 53.7471 160.216 54.0266 159.829 54.3687C159.364 54.7994 158.993 55.3214 158.738 55.9021C158.484 56.4828 158.352 57.1097 158.35 57.7437C158.35 58.7534 158.693 59.6993 159.251 60.4511L159.829 59.8716L161.117 58.5811L161.333 58.3666C161.265 58.1805 161.229 57.9841 161.226 57.7858C161.226 56.8412 161.999 56.0677 162.943 56.0677C163.887 56.0677 164.661 56.8412 164.661 57.7858C164.66 58.2415 164.479 58.6784 164.157 59.0009C163.835 59.3234 163.398 59.5052 162.943 59.5065C162.745 59.5058 162.549 59.4694 162.365 59.3993L161.117 60.6451L160.302 61.4621C160.56 61.6331 160.839 61.8054 161.117 61.9344C161.694 62.1837 162.315 62.3152 162.943 62.3211C163.858 62.3207 164.752 62.0462 165.51 61.5329C166.267 61.0196 166.854 60.2911 167.193 59.4414C167.344 59.0125 167.451 58.5811 167.495 58.1305ZM161.117 42.1848C161.117 41.0312 160.841 39.8943 160.311 38.8697C159.78 37.8451 159.012 36.9627 158.07 36.2964C157.616 35.9708 157.127 35.6972 156.611 35.4808C155.753 35.1269 154.834 34.9439 153.905 34.9421C152.919 34.9421 151.973 35.1361 151.114 35.5012C150.662 35.695 150.231 35.9327 149.826 36.2109C148.45 37.15 147.447 38.5417 146.992 40.1437C146.794 40.7987 146.693 41.479 146.692 42.1631C146.692 42.8511 146.798 43.5379 146.992 44.1838C147.462 45.7786 148.461 47.1655 149.826 48.1153C150.821 48.803 151.972 49.2313 153.175 49.3611V45.1934C152.713 45.0773 152.285 44.8531 151.927 44.5393C151.569 44.2255 151.29 43.8311 151.114 43.3885C150.967 43.0341 150.895 42.6537 150.901 42.2703C150.901 41.8836 150.964 41.4968 151.114 41.1534C151.336 40.5946 151.721 40.1155 152.219 39.7781C152.716 39.4408 153.304 39.2609 153.905 39.2617C155.086 39.2617 156.094 39.928 156.59 40.9173C156.803 41.3257 156.91 41.7763 156.91 42.2703C156.91 42.7656 156.803 43.2162 156.59 43.6247C156.396 44.0115 156.121 44.3519 155.784 44.6227C155.447 44.8935 155.055 45.0882 154.635 45.1934V49.3611C155.305 49.2937 155.963 49.1348 156.59 48.8888C157.041 48.7031 157.472 48.4726 157.878 48.2008C158.874 47.5449 159.691 46.6518 160.257 45.6017C160.822 44.5516 161.118 43.3775 161.117 42.1848ZM159.809 72.8507V62.9019C159.616 62.7717 159.422 62.6428 159.229 62.4922L154.635 67.0913V72.8507H159.809ZM159.809 52.5217V50.1793H157.275C156.427 50.5343 155.529 50.7585 154.614 50.8444V65.0285L158.156 61.4621C157.308 60.3916 156.846 59.066 156.846 57.7003C156.863 56.6572 157.144 55.6354 157.662 54.7299C158.18 53.8244 158.918 53.0648 159.809 52.5217ZM154.635 43.8608C155.215 43.5825 155.622 42.98 155.622 42.3137C155.621 41.8585 155.44 41.4221 155.118 41.0999C154.797 40.7778 154.361 40.596 153.905 40.5943C153.45 40.596 153.014 40.7778 152.692 41.0999C152.371 41.4221 152.189 41.8585 152.188 42.3137C152.188 43.0017 152.596 43.603 153.175 43.8608C153.391 43.9693 153.647 44.0331 153.905 44.0331C154.156 44.0114 154.402 43.9534 154.635 43.8608ZM153.175 72.8507V64.2984L151.114 62.2356V72.8507H153.175ZM153.175 62.2356V50.8444C152.474 50.7789 151.783 50.635 151.114 50.4155V60.1728L153.175 62.2356ZM149.826 72.8507V60.9464L146.864 57.9798C145.809 58.8023 144.509 59.2484 143.171 59.2474C141.704 59.2452 140.288 58.71 139.186 57.7414C138.084 56.7728 137.371 55.4367 137.181 53.9819H125.803C125.105 54.3885 124.313 54.6039 123.506 54.6061C122.905 54.6061 122.325 54.4772 121.788 54.2615V60.3873H146.347C146.712 60.3873 146.992 60.6668 146.992 61.0319V68.1227C146.994 68.2079 146.978 68.2925 146.946 68.3716C146.915 68.4507 146.867 68.5225 146.807 68.5828C146.747 68.6431 146.675 68.6907 146.596 68.7226C146.517 68.7545 146.433 68.7701 146.347 68.7686H121.788V72.8507H149.826ZM149.826 58.8823V49.8564C148.199 48.9732 146.886 47.6066 146.069 45.9453H125.482L127.906 49.6841C127.994 49.7926 128.015 49.9215 128.015 50.0708V50.1372C128.015 51.1035 127.715 51.9843 127.177 52.7144H137.117C137.374 49.6202 139.973 47.1707 143.127 47.1707C144.263 47.1714 145.375 47.4924 146.337 48.0968C147.299 48.7013 148.071 49.5647 148.564 50.5879C149.057 51.6111 149.252 52.7527 149.126 53.8817C149 55.0106 148.558 56.081 147.851 56.9702L149.826 58.8823ZM149.826 34.5336V32.6853H112.793V35.8458H118.59C118.698 35.8442 118.805 35.8711 118.899 35.9238C118.993 35.9765 119.072 36.053 119.127 36.1458L120.049 37.564H146.347C146.434 37.564 146.499 37.5857 146.563 37.6074C147.355 36.3083 148.482 35.2465 149.826 34.5336ZM146.864 55.9158C147.447 55.1332 147.763 54.1841 147.766 53.2084C147.765 51.9956 147.283 50.8326 146.426 49.9747C145.569 49.1167 144.406 48.6339 143.193 48.6323C142.065 48.633 140.977 49.05 140.137 49.8032C139.297 50.5564 138.764 51.593 138.641 52.7144C138.621 52.8867 138.621 53.0591 138.621 53.2314C138.621 53.4879 138.641 53.7675 138.685 54.0049C138.87 55.0675 139.423 56.0311 140.247 56.7264C141.072 57.4218 142.115 57.8046 143.193 57.8075C144.141 57.8052 145.065 57.5047 145.833 56.9485L143.771 54.8857C143.372 55.0333 142.931 55.0246 142.537 54.8613C142.143 54.6981 141.825 54.3922 141.647 54.0049C141.536 53.7772 141.477 53.5271 141.476 53.2735C141.476 53.0795 141.497 52.8867 141.562 52.7144C141.679 52.3752 141.899 52.0811 142.192 51.8731C142.484 51.6651 142.834 51.5535 143.193 51.5541C143.648 51.5558 144.085 51.7376 144.406 52.0597C144.728 52.3819 144.909 52.8182 144.91 53.2735C144.91 53.4662 144.868 53.682 144.803 53.853L146.864 55.9158ZM145.704 67.4781V61.6752H121.788V67.4781H145.704ZM145.704 39.3919V38.8315H120.887L124.666 44.6343H145.598C145.361 43.8396 145.245 43.0139 145.253 42.1848C145.24 41.2347 145.392 40.2895 145.704 39.3919ZM126.683 50.7589H120.329C120.372 50.9529 120.436 51.1456 120.5 51.3179C120.738 51.877 121.103 52.3493 121.595 52.6927L121.788 52.8216C122.283 53.1229 122.883 53.3169 123.506 53.3169C124.193 53.3139 124.861 53.0956 125.417 52.6927C126.062 52.2204 126.512 51.5541 126.683 50.7589ZM126.211 49.3841L123.958 45.9249L123.121 44.6343L118.225 37.1351H87.5901L79.6684 49.3841H126.211ZM120.5 72.8507V53.4662C120.039 53.0517 119.666 52.5474 119.406 51.9843C119.296 52.2341 119.159 52.4716 118.999 52.6927C118.575 53.2827 118.018 53.7638 117.372 54.0964C116.726 54.4291 116.011 54.6038 115.284 54.6061C114.36 54.6061 113.523 54.3266 112.816 53.8747C112.31 53.5374 111.872 53.1073 111.527 52.6072C111.392 52.4116 111.277 52.2029 111.184 51.9843C110.819 52.7692 110.237 53.4333 109.507 53.8979C108.777 54.3626 107.928 54.6083 107.063 54.6061C106.198 54.6057 105.351 54.3589 104.621 53.8945C103.891 53.4302 103.308 52.7676 102.941 51.9843C102.576 52.7693 101.993 53.4333 101.263 53.8979C100.532 54.3625 99.6838 54.6082 98.818 54.6061C98.1768 54.6062 97.5429 54.4702 96.9582 54.207C96.3736 53.9439 95.8514 53.5595 95.4264 53.0795C95.1272 52.7549 94.8808 52.3853 94.6962 51.9843C94.5456 52.3059 94.3516 52.6289 94.1384 52.9084C93.7124 53.4385 93.1729 53.8662 92.5597 54.1601C91.9464 54.4539 91.275 54.6063 90.5949 54.6061C89.7299 54.6054 88.883 54.3584 88.1531 53.8941C87.4232 53.4299 86.8406 52.7674 86.4732 51.9843C86.0246 52.95 85.2493 53.7262 84.2841 54.176V72.8507H96.8203V58.8823C96.8203 58.5172 97.1215 58.239 97.4649 58.239H106.698C107.063 58.239 107.341 58.5172 107.341 58.8823V63.6755C107.917 63.7985 108.433 64.115 108.804 64.5723C109.175 65.0296 109.378 65.6001 109.379 66.1888C109.379 67.4142 108.5 68.4673 107.341 68.7022V72.8507H120.5ZM118.44 50.7589H112.086C112.193 51.2975 112.451 51.7915 112.793 52.1783C113.089 52.5183 113.45 52.7946 113.856 52.9903C114.262 53.1861 114.704 53.2972 115.154 53.3169H115.261C115.971 53.3169 116.636 53.0795 117.172 52.6927C117.817 52.2421 118.289 51.5541 118.44 50.7589ZM110.217 50.7589H103.864C104.018 51.4854 104.418 52.1366 104.997 52.6025C105.575 53.0685 106.297 53.3208 107.04 53.3169C107.783 53.3211 108.504 53.0689 109.083 52.603C109.662 52.137 110.062 51.4857 110.217 50.7589ZM108.071 66.1888C108.071 65.6731 107.77 65.2225 107.319 65.0068C107.152 64.9284 106.968 64.8916 106.783 64.8996C106.504 64.8996 106.247 64.9851 106.031 65.1357C105.708 65.3732 105.495 65.7599 105.495 66.1888C105.495 66.619 105.708 67.0058 106.031 67.2419C106.247 67.3925 106.504 67.4781 106.783 67.4781C106.976 67.4781 107.148 67.4347 107.319 67.3708C107.77 67.1551 108.071 66.7045 108.071 66.1888ZM106.031 72.8507V68.6601C105.503 68.4967 105.042 68.1687 104.713 67.724C104.385 67.2794 104.208 66.7415 104.207 66.1888C104.207 65.0285 104.978 64.0393 106.031 63.7176V59.5269H98.0891V72.8507H106.031ZM101.973 50.7589H95.6179C95.773 51.4855 96.1738 52.1366 96.7526 52.6025C97.3315 53.0684 98.0532 53.3207 98.7963 53.3169C99.5392 53.3206 100.261 53.0683 100.839 52.6024C101.418 52.1365 101.818 51.4854 101.973 50.7589ZM96.9071 5.80283V1.28924H51.609V5.80283H96.9071ZM94.1167 35.8458V7.09079H54.4006V36.7483C55.6445 38.2864 56.3195 40.2067 56.3115 42.1848C56.3161 44.1624 55.6416 46.0815 54.4006 47.6213V48.654C55.4729 47.7285 56.8476 47.149 58.373 47.149H58.6934V40.4003C58.6934 40.0352 58.9729 39.757 59.338 39.757H84.3479L86.066 37.1134V34.8132H62.279C62.194 34.8147 62.1095 34.7991 62.0307 34.7673C61.9518 34.7354 61.8802 34.688 61.8202 34.6278C61.7601 34.5676 61.7128 34.4959 61.6811 34.417C61.6494 34.3381 61.6339 34.2536 61.6357 34.1686V29.0116H59.2308C59.1457 29.0132 59.0612 28.9976 58.9823 28.9657C58.9034 28.9339 58.8317 28.8865 58.7715 28.8263C58.7113 28.7661 58.6639 28.6944 58.6321 28.6155C58.6002 28.5366 58.5846 28.4521 58.5862 28.367V21.2749C58.5862 20.9099 58.8657 20.6303 59.2308 20.6303H89.2866C89.6516 20.6303 89.9312 20.9099 89.9312 21.2749V28.367C89.9327 28.4521 89.9171 28.5366 89.8853 28.6155C89.8534 28.6944 89.806 28.7661 89.7458 28.8263C89.6857 28.8865 89.614 28.9339 89.5351 28.9657C89.4562 28.9976 89.3716 29.0132 89.2866 29.0116H62.9236V33.5252H86.7106C87.0757 33.5252 87.354 33.8035 87.354 34.1686V35.8458H94.1167ZM93.7517 50.7589H87.3961C87.5512 51.4853 87.9518 52.1362 88.5304 52.6021C89.109 53.068 89.8304 53.3204 90.5732 53.3169C91.3163 53.3207 92.038 53.0684 92.6169 52.6025C93.1957 52.1366 93.5965 51.4855 93.7517 50.7589ZM88.6432 27.7224V21.9208H59.8741V27.7224H88.6432ZM85.5082 50.7589H79.1527C79.3076 51.4854 79.7081 52.1365 80.2867 52.6024C80.8654 53.0683 81.5869 53.3206 82.3298 53.3169C82.5455 53.3169 82.76 53.2952 82.9744 53.2531C83.4467 53.1676 83.8769 52.9518 84.2624 52.6927C84.9057 52.2204 85.3563 51.5324 85.5082 50.7589ZM79.7335 46.8477L83.5105 41.0462H59.9814V46.8477H79.7335ZM82.9744 72.8507V54.5627C82.7604 54.588 82.5453 54.6025 82.3298 54.6061C79.8407 54.6061 77.8009 52.5855 77.8009 50.1155V50.0491C77.8009 49.9215 77.8226 49.7926 77.9081 49.6624L78.8961 48.137H61.6791C62.5237 48.686 63.2175 49.4377 63.6973 50.3235C64.177 51.2093 64.4276 52.201 64.426 53.2084C64.4224 54.5278 63.9888 55.8101 63.1909 56.8609C62.393 57.9118 61.2743 58.6738 60.0043 59.0317V72.8507H67.8393V58.8823C67.8393 58.5172 68.1393 58.239 68.4826 58.239H77.7154C78.0804 58.239 78.3587 58.5172 78.3587 58.8823V63.6972C78.9128 63.8371 79.4041 64.1584 79.7543 64.61C80.1045 65.0616 80.2936 65.6174 80.2913 66.1888C80.2913 67.3925 79.4743 68.4022 78.3587 68.6831V72.8507H82.9744ZM78.9816 66.1888C78.9826 66.0193 78.95 65.8513 78.8857 65.6946C78.8213 65.5378 78.7265 65.3953 78.6067 65.2754C78.4869 65.1555 78.3446 65.0605 78.1878 64.996C78.0311 64.9315 77.8631 64.8987 77.6937 64.8996C77.5241 64.8986 77.3561 64.9312 77.1993 64.9957C77.0425 65.0601 76.9 65.1551 76.7802 65.275C76.6604 65.3949 76.5656 65.5375 76.5013 65.6944C76.437 65.8512 76.4045 66.0193 76.4057 66.1888C76.4041 66.4155 76.4625 66.6386 76.5751 66.8354C76.6876 67.0321 76.8502 67.1956 77.0464 67.3092C77.2425 67.4228 77.4653 67.4824 77.692 67.482C77.9187 67.4817 78.1412 67.4213 78.337 67.307C78.7238 67.0913 78.9816 66.6611 78.9816 66.1888ZM77.049 72.8507V68.6831C76.4949 68.5424 76.0036 68.2205 75.6535 67.7686C75.3033 67.3166 75.1143 66.7606 75.1165 66.1888C75.1165 64.9851 75.9321 63.9754 77.049 63.6972V59.5269H69.1068V72.8507H77.049ZM62.9453 53.2084C62.9453 51.2528 61.6995 49.5768 59.9597 48.9105C59.547 48.7527 59.1127 48.6589 58.6717 48.6323C58.5645 48.6323 58.4585 48.6106 58.3513 48.6106C56.6536 48.6106 55.1729 49.5347 54.3789 50.9108C53.9826 51.6036 53.7753 52.3885 53.7777 53.1867C53.7777 54.0266 53.9922 54.8002 54.3789 55.4652C54.4644 55.6158 54.55 55.7664 54.6572 55.8966L56.7404 53.8109C56.6734 53.6248 56.6372 53.4291 56.6332 53.2314C56.6338 52.7757 56.815 52.3388 57.137 52.0163C57.459 51.6938 57.8956 51.512 58.3513 51.5107C58.4585 51.5107 58.5645 51.5324 58.6717 51.5324C59.2742 51.6396 59.7465 52.0711 59.9597 52.6289C60.026 52.8216 60.0681 53.0157 60.0681 53.2314C60.0681 53.4458 60.026 53.6398 59.9597 53.8326C59.8586 54.1113 59.6867 54.3588 59.4608 54.5509C59.235 54.7429 58.963 54.8728 58.6717 54.9278C58.5645 54.9495 58.4585 54.9495 58.3513 54.9495C58.1573 54.9495 57.9416 54.9074 57.7705 54.8423L55.7103 56.9051C56.478 57.4628 57.4024 57.7635 58.3513 57.7641C58.4585 57.7641 58.5645 57.7641 58.6717 57.7437C59.1127 57.7171 59.547 57.6232 59.9597 57.4654C60.837 57.1526 61.5955 56.5749 62.1304 55.8123C62.6652 55.0497 62.95 54.1398 62.9453 53.2084ZM58.6934 72.8507V59.2474H58.373C57.0351 59.2488 55.7352 58.8026 54.6802 57.9798L54.4006 58.2581V72.8507H58.6934ZM54.8512 42.1848C54.8512 41.304 54.7019 40.445 54.4006 39.6714C54.1076 38.875 53.6711 38.1391 53.1127 37.5002C51.78 35.9531 49.8283 34.9638 47.6379 34.9638C45.8514 34.9672 44.1297 35.6336 42.8064 36.8338C42.3151 37.2865 41.8824 37.799 41.5185 38.3592C40.8043 39.5075 40.4254 40.8326 40.4245 42.1848C40.4245 43.5825 40.833 44.8922 41.5185 46.0104C41.8836 46.5899 42.3137 47.1069 42.8064 47.5358C43.9411 48.5711 45.3803 49.2115 46.909 49.3611V45.1934C46.8643 45.1934 46.8426 45.1717 46.8005 45.1717C46.1777 44.9883 45.6305 44.6092 45.2399 44.0906C44.8493 43.5719 44.6361 42.9413 44.6318 42.292C44.6338 41.4953 44.9511 40.7317 45.5144 40.1682C46.0777 39.6047 46.8411 39.287 47.6379 39.2847C48.4346 39.287 49.1981 39.6047 49.7613 40.1682C50.3246 40.7317 50.6419 41.4953 50.644 42.292C50.6462 42.9636 50.4232 43.6166 50.0106 44.1465C49.598 44.6764 49.0197 45.0527 48.368 45.2151V49.3841C50.2109 49.1929 51.9097 48.3003 53.1127 46.8911C53.6714 46.2443 54.1079 45.5012 54.4006 44.6982C54.7029 43.8949 54.8556 43.0431 54.8512 42.1848ZM53.1127 72.8507V59.5486L48.368 64.2984V72.8507H53.1127ZM53.1127 57.4846V56.1749C52.6035 55.2692 52.337 54.2474 52.3391 53.2084C52.3391 52.1349 52.6174 51.1035 53.1127 50.2432V48.9322C51.7607 50.0345 50.1065 50.7012 48.368 50.8444V62.2356L53.1127 57.4846ZM48.2608 43.9029C48.9041 43.6464 49.356 43.0222 49.356 42.3137C49.355 41.8582 49.1737 41.4217 48.8517 41.0995C48.5298 40.7773 48.0934 40.5957 47.6379 40.5943C47.1824 40.5957 46.746 40.7773 46.424 41.0995C46.1021 41.4217 45.9208 41.8582 45.9198 42.3137C45.9198 42.9583 46.2848 43.5162 46.8005 43.8174C46.8426 43.8391 46.8643 43.8608 46.909 43.8608C47.1222 43.9693 47.38 44.0331 47.6379 44.0331H47.703C47.8957 44.0114 48.0897 43.9693 48.2608 43.9029ZM46.909 72.8507V67.0913L42.8064 62.9874V72.8507H46.909ZM46.909 65.0285V50.8444C45.4417 50.7204 44.0299 50.2253 42.8064 49.4058V53.3603C43.3959 53.9238 43.8653 54.6007 44.1864 55.3502C44.5076 56.0998 44.6738 56.9065 44.6752 57.722C44.675 59.0873 44.2135 60.4125 43.3655 61.4825L46.909 65.0285ZM43.1932 57.722C43.1932 57.057 43.0439 56.4328 42.7873 55.852C42.5014 55.1961 42.0587 54.6205 41.4981 54.176C40.7086 53.5344 39.7279 53.174 38.7109 53.1516C37.6939 53.1291 36.6983 53.4459 35.8813 54.052C35.0642 54.658 34.4722 55.5188 34.1986 56.4986C33.925 57.4784 33.9854 58.5214 34.3702 59.4631C34.5413 59.8716 34.757 60.2583 35.0366 60.5813C35.445 61.0957 35.9594 61.5042 36.539 61.8054C37.177 62.1306 37.8831 62.2999 38.5992 62.2994C39.5872 62.2994 40.4896 61.9765 41.2402 61.4404L39.18 59.3763C38.9935 59.4437 38.7974 59.4803 38.5992 59.4848C38.3209 59.4848 38.0414 59.4184 37.8052 59.2908C37.4615 59.115 37.1885 58.8266 37.0317 58.4738C36.9392 58.2559 36.8886 58.0225 36.8823 57.7858C36.8823 56.8412 37.6546 56.0677 38.5992 56.0677C39.5451 56.0677 40.316 56.8412 40.316 57.7858C40.316 58.0015 40.2739 58.1943 40.2101 58.3666L41.4981 59.6559L42.292 60.4511C42.4902 60.1851 42.6564 59.8968 42.7873 59.592C43.0643 59.0125 43.1932 58.3666 43.1932 57.722ZM41.5185 72.8507V63.0091C40.6317 63.5006 39.6348 63.7593 38.6209 63.761C38.3643 63.761 38.1065 63.7393 37.8474 63.7176L37.9137 72.8507H41.5185ZM41.5185 52.4132V48.331C40.7092 47.525 40.067 46.5672 39.6287 45.5125C39.1903 44.4578 38.9646 43.327 38.9643 42.1848C38.9643 39.7787 39.951 37.6074 41.5185 36.0386V25.1643L13.9327 38.1026V49.2552C14.9957 50.0632 15.8572 51.1066 16.4494 52.3034C17.0416 53.5002 17.3485 54.8179 17.346 56.1532C17.3485 57.4885 17.0416 58.8063 16.4494 60.0031C15.8572 61.1999 14.9957 62.2432 13.9327 63.0513V72.8507H17.5821V59.7414C17.5821 59.4848 17.7327 59.2474 17.9689 59.1402L36.7968 51.1456V43.9693L18.4833 52.1566C18.3832 52.1971 18.2752 52.2143 18.1675 52.2068C18.0597 52.1992 17.9551 52.1672 17.8617 52.1132C17.7702 52.0563 17.6948 51.9772 17.6423 51.8832C17.5898 51.7892 17.5621 51.6834 17.5617 51.5758V44.0548C17.5617 43.7957 17.711 43.5825 17.9268 43.474L33.1678 36.382C33.1258 36.2063 33.1044 36.0264 33.104 35.8458C33.104 34.4264 34.263 33.2661 35.6799 33.2661C37.0981 33.2661 38.2558 34.4264 38.2558 35.8458C38.2558 37.2627 37.0981 38.4243 35.6799 38.4243C34.9064 38.4243 34.2209 38.0797 33.7473 37.5436L18.8279 44.4837V50.5878L37.1402 42.4005C37.24 42.3591 37.3481 42.3414 37.4559 42.3487C37.5638 42.356 37.6685 42.3882 37.7618 42.4426C37.8533 42.4995 37.9289 42.5786 37.9816 42.6726C38.0343 42.7666 38.0623 42.8723 38.0631 42.98V51.6843C38.2341 51.6626 38.4281 51.6626 38.5992 51.6626C39.6727 51.6626 40.6607 51.9409 41.5185 52.4132ZM37.01 35.8458C37.0129 35.5044 36.88 35.1758 36.6406 34.9324C36.4012 34.6889 36.0749 34.5506 35.7335 34.5477C35.3921 34.5448 35.0635 34.6777 34.8201 34.917C34.5766 35.1564 34.4382 35.4827 34.4353 35.8241V35.8458C34.4353 36.0669 34.4927 36.2842 34.6019 36.4764C34.7111 36.6686 34.8684 36.8292 35.0583 36.9423C35.2565 37.0699 35.4876 37.1368 35.7233 37.1351C36.4317 37.1351 37.01 36.5556 37.01 35.8458ZM36.6258 72.8507L36.5594 63.3959C35.3591 62.9619 34.3288 62.156 33.6184 61.0957L28.2738 63.073V66.2743C28.7083 66.4113 29.088 66.6829 29.3581 67.0497C29.6281 67.4166 29.7746 67.8599 29.7762 68.3154C29.7762 69.2626 29.1533 70.0999 28.2738 70.3578V72.6363C28.272 72.7098 28.2573 72.7823 28.2304 72.8507H36.6258ZM34.1124 53.682L18.8701 60.1498V65.1779L33.0185 59.9354C32.7341 59.2246 32.5885 58.4659 32.5896 57.7003C32.5896 56.1749 33.1678 54.7555 34.1124 53.682ZM28.681 68.3384C28.68 68.1718 28.6407 68.0076 28.5664 67.8585C28.4921 67.7093 28.3845 67.5792 28.2521 67.4781C28.0652 67.3405 27.8396 67.2655 27.6075 67.2636C27.3758 67.2657 27.1507 67.3407 26.9642 67.4781C26.8317 67.5792 26.7242 67.7093 26.6499 67.8585C26.5755 68.0076 26.5363 68.1718 26.5353 68.3384C26.5353 68.6831 26.7063 69.0034 26.9642 69.1975C27.1352 69.3264 27.3726 69.4119 27.6075 69.4119C27.8396 69.41 28.0652 69.335 28.2521 69.1975C28.3882 69.1 28.4983 68.9708 28.5731 68.8211C28.6478 68.6714 28.6849 68.5057 28.681 68.3384ZM18.8701 72.8507H27.0076C26.9806 72.7823 26.9659 72.7098 26.9642 72.6363V70.3795C26.5295 70.2426 26.1497 69.9711 25.8794 69.6042C25.6091 69.2373 25.4624 68.7941 25.4605 68.3384C25.4605 67.3925 26.0847 66.5539 26.9642 66.2961V63.567L18.8484 66.5756V72.8507H18.8701ZM22.2412 23.9823C25.3545 22.1136 26.4919 18.1591 24.9461 14.936L19.0858 18.482L18.6352 18.7386L12.9881 22.134C13.9495 23.4555 15.3493 24.3924 16.9375 24.7776C17.8301 25.0034 18.7587 25.0494 19.6693 24.9128C20.5798 24.7763 21.4541 24.46 22.2412 23.9823ZM24.1725 92.2339C24.1725 91.7385 23.9757 91.2633 23.6254 90.913C23.275 90.5626 22.7999 90.3658 22.3044 90.3658C21.809 90.3658 21.3338 90.5626 20.9835 90.913C20.6331 91.2633 20.4363 91.7385 20.4363 92.2339C20.4363 92.7294 20.6331 93.2045 20.9835 93.5549C21.3338 93.9052 21.809 94.102 22.3044 94.102C22.7999 94.102 23.275 93.9052 23.6254 93.5549C23.9757 93.2045 24.1725 92.7294 24.1725 92.2339ZM15.8219 12.8081C15.9724 12.6681 16.0921 12.4983 16.1734 12.3096C16.2547 12.1208 16.2958 11.9172 16.2941 11.7116C16.2955 11.5139 16.2576 11.3178 16.1826 11.1349C16.1076 10.9519 15.997 10.7857 15.8572 10.6458C15.7174 10.5059 15.5513 10.3952 15.3684 10.32C15.1855 10.2448 14.9895 10.2067 14.7917 10.2079C13.9544 10.2079 13.2881 10.8743 13.2881 11.7116C13.2865 11.9096 13.3244 12.1059 13.3994 12.289C13.4744 12.4722 13.5851 12.6387 13.725 12.7787C13.8649 12.9188 14.0313 13.0296 14.2144 13.1048C14.3975 13.1799 14.5938 13.2179 14.7917 13.2166C14.8773 13.2166 14.9641 13.2166 15.0496 13.1949C15.3508 13.1515 15.6074 13.0021 15.8219 12.8081ZM12.6447 72.8507V63.8682C11.6359 64.3915 10.5345 64.7123 9.40248 64.8128V72.8507H12.6447Z" fill="#4C5B5C"/>
<path d="M52.3825 84.607V80.7597C52.1895 80.7072 52.0194 80.5921 51.8988 80.4325C51.7782 80.2729 51.714 80.0777 51.7162 79.8777C51.7162 79.362 52.1247 78.9535 52.6404 78.9535C52.8608 78.9561 53.0731 79.0374 53.2388 79.1829C53.4044 79.3283 53.5125 79.5283 53.5435 79.7466C53.5745 79.9648 53.5264 80.187 53.4078 80.3728C53.2892 80.5587 53.108 80.6959 52.897 80.7597V84.607H54.6151V106.634H52.897V110.479C53.09 110.532 53.26 110.647 53.3806 110.807C53.5011 110.967 53.5654 111.162 53.5633 111.362C53.5641 111.483 53.5408 111.604 53.4948 111.716C53.4487 111.828 53.3807 111.93 53.2949 112.016C53.209 112.102 53.1069 112.17 52.9946 112.216C52.8822 112.262 52.7618 112.286 52.6404 112.285C52.4177 112.287 52.2018 112.208 52.0329 112.063C51.8639 111.918 51.7534 111.716 51.7219 111.496C51.6904 111.275 51.74 111.051 51.8615 110.864C51.983 110.678 52.1682 110.541 52.3825 110.481V106.634H50.6657V84.607H52.3825ZM144.846 84.607V80.7597C144.653 80.7072 144.483 80.5921 144.363 80.4325C144.242 80.2729 144.178 80.0777 144.18 79.8777C144.18 79.362 144.588 78.9535 145.103 78.9535C145.323 78.9558 145.536 79.0369 145.702 79.1823C145.868 79.3276 145.976 79.5276 146.007 79.746C146.038 79.9643 145.99 80.1866 145.872 80.3726C145.753 80.5585 145.572 80.6959 145.361 80.7597V84.607H147.079V106.634H145.361V110.481C145.554 110.533 145.724 110.648 145.845 110.807C145.965 110.967 146.029 111.162 146.027 111.362C146.028 111.483 146.005 111.604 145.958 111.716C145.912 111.829 145.844 111.931 145.758 112.017C145.672 112.103 145.57 112.171 145.457 112.217C145.345 112.263 145.224 112.286 145.103 112.285C144.88 112.287 144.665 112.207 144.496 112.062C144.327 111.917 144.217 111.716 144.186 111.495C144.154 111.275 144.204 111.051 144.325 110.864C144.447 110.678 144.632 110.541 144.846 110.481V106.634H143.129V84.607H144.846ZM101.758 82.0911C104.743 82.0911 106.245 83.7671 106.245 87.0987V92.1063C106.245 94.6631 105.474 96.2752 103.906 96.9633L106.631 109.147H102.918L100.364 97.3271H98.0011V104.828H96.2204V108.568C96.4133 108.62 96.5834 108.735 96.704 108.894C96.8246 109.054 96.8889 109.249 96.8867 109.448C96.8867 109.964 96.4782 110.373 95.9625 110.373C95.7381 110.375 95.5205 110.296 95.3509 110.149C95.1813 110.002 95.0716 109.798 95.0425 109.575C95.0134 109.353 95.0669 109.127 95.193 108.941C95.319 108.756 95.5088 108.623 95.7264 108.568V104.828H94.095V82.0911H101.758ZM29.8835 80.3947C29.8314 80.5875 29.7168 80.7576 29.5576 80.8782C29.3984 80.9988 29.2037 81.0631 29.004 81.061C28.8824 81.0618 28.7619 81.0385 28.6495 80.9923C28.5371 80.9462 28.4349 80.8781 28.3491 80.7921C28.2632 80.7061 28.1953 80.6039 28.1492 80.4914C28.1032 80.3789 28.0801 80.2584 28.0811 80.1368C28.0811 79.6211 28.487 79.2127 29.004 79.2127C29.4329 79.2127 29.7763 79.4909 29.8835 79.8777H40.2305C43.7089 79.8777 45.4488 81.6405 45.4488 85.1648V92.6871C45.4488 94.3631 44.5042 95.3945 42.6354 95.7813V95.9957C44.7824 96.5982 45.856 97.7164 45.856 99.3707V104.829C45.856 107.729 44.374 109.191 41.4126 109.191H29.8835C29.8314 109.383 29.7168 109.553 29.5576 109.674C29.3984 109.795 29.2037 109.859 29.004 109.857C28.8825 109.858 28.762 109.835 28.6496 109.789C28.5372 109.743 28.435 109.675 28.3491 109.589C28.2632 109.503 28.1953 109.401 28.1493 109.288C28.1033 109.176 28.0801 109.055 28.0811 108.934C28.0811 108.417 28.487 108.009 29.004 108.009C29.4329 108.009 29.7763 108.31 29.8835 108.697H33.5546V95.2439H29.8835C29.8314 95.4367 29.7168 95.6067 29.5576 95.7273C29.3984 95.848 29.2037 95.9123 29.004 95.9102C28.8823 95.911 28.7617 95.8877 28.6492 95.8414C28.5367 95.7952 28.4345 95.727 28.3486 95.6409C28.2627 95.5547 28.1948 95.4523 28.1489 95.3397C28.1029 95.227 28.0799 95.1064 28.0811 94.9847C28.0811 94.4703 28.487 94.0618 29.004 94.0618C29.4329 94.0618 29.7763 94.3414 29.8835 94.7282H33.5546V80.3947H29.8835ZM188.255 79.8777V83.4225H182.48V94.2112H187.611V97.7585H182.48V105.601H188.255V107.128H191.968C192.02 106.935 192.135 106.765 192.294 106.644C192.453 106.524 192.648 106.459 192.848 106.461C193.342 106.461 193.75 106.869 193.771 107.384C193.772 107.506 193.749 107.627 193.703 107.739C193.657 107.852 193.589 107.954 193.503 108.041C193.417 108.127 193.315 108.195 193.203 108.241C193.09 108.287 192.97 108.311 192.848 108.31C192.649 108.308 192.456 108.243 192.297 108.122C192.139 108.002 192.023 107.834 191.968 107.642H188.255V109.169H178.572V81.9201H174.859C174.806 82.1129 174.691 82.2828 174.532 82.4032C174.373 82.5236 174.178 82.5875 173.978 82.5851C173.856 82.5859 173.736 82.5627 173.624 82.5166C173.511 82.4705 173.409 82.4025 173.323 82.3167C173.238 82.2308 173.17 82.1287 173.123 82.0164C173.077 81.904 173.054 81.7836 173.055 81.6622C173.053 81.4394 173.131 81.2233 173.276 81.0541C173.421 80.8849 173.623 80.7742 173.843 80.7425C174.064 80.7108 174.288 80.7603 174.475 80.8818C174.662 81.0034 174.798 81.1886 174.859 81.4031H178.572V79.8777H188.255ZM68.0321 94.0184V79.8777H71.9406V106.634H68.9767L63.8465 90.0001V109.147H59.9405V79.8777H63.8465L68.0321 94.0184ZM113.781 82.0911V95.5017C113.781 96.6403 114.36 97.2198 115.499 97.2198H116.551C117.688 97.2198 118.269 96.6403 118.269 95.5017H118.247V82.0911H122.153V95.7583C122.153 98.9188 120.758 100.573 117.968 100.744V109.147H114.059V100.744C111.27 100.595 109.873 98.9188 109.873 95.7583V82.0911H113.781ZM84.6492 82.0911C87.7829 82.0911 89.3287 83.7671 89.3504 87.0987V109.147H85.4431V95.9102H80.9563V104.806H77.0491V87.0987C77.0491 83.7671 78.6166 82.0911 81.7299 82.0911H84.6492ZM132.436 102.227L135.614 79.8777H139.479L134.756 109.147H130.118L125.395 79.8777H129.261L132.436 102.227ZM165.391 79.8777H169.297V103.086H174.666V106.634H165.391V79.8777ZM39.6306 97.6717H37.4823V105.602H40.4041C41.433 105.602 41.9499 105.172 41.9499 104.335V99.7575C41.9499 98.3597 41.1764 97.6717 39.6306 97.6717ZM152.231 79.8777H156.158V99.9272H161.527V103.473H152.231V79.8777ZM39.78 83.425H37.4823V94.1257H39.3077C40.7896 94.1257 41.5402 93.4159 41.5402 91.9991V85.5516C41.5402 84.1347 40.9403 83.425 39.78 83.425ZM100.578 85.6371H98.0228V93.9967H100.578C101.758 93.9967 102.339 93.287 102.339 91.8689V87.765C102.339 86.3468 101.739 85.6371 100.578 85.6371ZM83.7033 85.6371H82.6528C81.5142 85.6371 80.9346 86.2179 80.9346 87.3565V92.3641H85.4202V87.3565C85.4202 86.1962 84.8419 85.6371 83.7033 85.6371Z" fill="#FF583D"/>
</g>
<defs>
<clipPath id="clip0_11_51">
<rect width="217" height="112.329" fill="white"/>
</clipPath>
</defs>
</svg>
