<svg width="94" height="83" viewBox="0 0 94 83" fill="none" xmlns="http://www.w3.org/2000/svg">
<g opacity="0.5">
<path d="M66.4946 47.7836C75.8508 66.2147 93.6861 77.6244 93.1988 79.8673C92.7115 82.1103 73.9016 75.1864 53.045 76.4542C32.0909 77.6244 9.18767 86.9862 2.36543 81.0376C-4.55428 75.0889 4.80194 53.9273 16.3023 34.4235C27.8027 14.8222 41.4472 -3.21883 48.7567 0.486892C56.0663 4.09509 57.0409 29.45 66.4946 47.7836Z" fill="#FF583D"/>
<path d="M40.5847 50.192C41.278 50.3413 41.8007 50.6293 42.1527 51.056C42.5154 51.4827 42.6967 52.0747 42.6967 52.832C42.6967 53.6853 42.4834 54.368 42.0567 54.88C41.63 55.3813 40.942 55.7493 39.9927 55.984C39.054 56.208 37.79 56.32 36.2007 56.32C34.686 56.32 33.4647 56.1867 32.5367 55.92C31.6087 55.6533 30.9154 55.232 30.4567 54.656C30.0087 54.08 29.7634 53.3067 29.7207 52.336H33.0807C33.1447 52.976 33.4274 53.44 33.9287 53.728C34.4407 54.0053 35.2087 54.144 36.2327 54.144C37.2994 54.144 38.0887 54.0427 38.6007 53.84C39.1127 53.6267 39.3687 53.2587 39.3687 52.736C39.3687 52.2027 39.1767 51.824 38.7927 51.6C38.4087 51.376 37.806 51.264 36.9847 51.264H34.6167V49.28H37.0967C37.8007 49.28 38.318 49.1733 38.6487 48.96C38.99 48.7467 39.1607 48.4 39.1607 47.92C39.1607 47.4613 38.9047 47.136 38.3927 46.944C37.8914 46.752 37.1607 46.656 36.2007 46.656C35.3154 46.656 34.6327 46.784 34.1527 47.04C33.6834 47.2853 33.406 47.6907 33.3207 48.256H30.0887C30.174 46.9333 30.7127 45.9787 31.7047 45.392C32.7074 44.8053 34.206 44.512 36.2007 44.512C37.6194 44.512 38.7714 44.6187 39.6567 44.832C40.5527 45.0347 41.2247 45.376 41.6727 45.856C42.1207 46.336 42.3447 46.976 42.3447 47.776C42.3447 48.416 42.19 48.9387 41.8807 49.344C41.582 49.7387 41.15 49.9893 40.5847 50.096V50.192ZM44.3447 53.104H47.6567V56H44.3447V53.104Z" fill="white"/>
</g>
</svg>
