<svg width="94" height="83" viewBox="0 0 94 83" fill="none" xmlns="http://www.w3.org/2000/svg">
<path d="M66.4946 47.7836C75.8508 66.2147 93.6861 77.6244 93.1988 79.8673C92.7115 82.1103 73.9016 75.1864 53.045 76.4542C32.0909 77.6244 9.18767 86.9862 2.36543 81.0376C-4.55428 75.0889 4.80194 53.9273 16.3023 34.4235C27.8027 14.8222 41.4472 -3.21883 48.7567 0.486892C56.0663 4.09509 57.0409 29.45 66.4946 47.7836Z" fill="#FF583D"/>
<path d="M39.5066 54.2834H36.4826V47.0834H32.8186V45.0354H33.5866C34.5999 45.0354 35.3519 44.8808 35.8426 44.5714C36.3439 44.2514 36.7066 43.7661 36.9306 43.1154H39.5066V54.2834ZM41.68 51.3874H44.992V54.2834H41.68V51.3874Z" fill="white"/>
</svg>
