<svg width="93" height="83" viewBox="0 0 93 83" fill="none" xmlns="http://www.w3.org/2000/svg">
<g opacity="0.5">
<path d="M26.6542 47.7836C17.3189 66.2147 -0.476448 77.6244 0.00976562 79.8673C0.495979 82.1103 19.2638 75.1864 40.0737 76.4542C60.9809 77.6244 83.8329 86.9862 90.6399 81.0376C97.5441 75.0889 88.2088 53.9273 76.7342 34.4235C65.2595 14.8222 51.6456 -3.21883 44.3524 0.486892C37.0592 4.09509 36.0868 29.45 26.6542 47.7836Z" fill="#FF583D"/>
<path d="M50.8263 51.64C50.2929 51.8 49.8609 51.9867 49.5303 52.2C49.1996 52.4027 48.9916 52.6 48.9062 52.792H58.0743V55H45.4663V54.648C45.4663 53.656 45.6796 52.8293 46.1063 52.168C46.5436 51.5067 47.0823 50.9893 47.7223 50.616C48.3623 50.2427 49.0983 49.9173 49.9303 49.64L52.6663 48.696C53.3916 48.4507 53.9143 48.2107 54.2343 47.976C54.5649 47.7307 54.7303 47.4107 54.7303 47.016C54.7303 46.536 54.5063 46.1947 54.0583 45.992C53.6103 45.7893 52.9649 45.688 52.1223 45.688C51.2049 45.688 50.4689 45.8427 49.9143 46.152C49.3703 46.4613 49.0556 46.9893 48.9703 47.736H45.5943C45.6689 46.232 46.2396 45.1547 47.3063 44.504C48.3729 43.8427 49.9249 43.512 51.9623 43.512C53.9996 43.512 55.5249 43.768 56.5383 44.28C57.5516 44.7813 58.0583 45.6613 58.0583 46.92C58.0583 47.624 57.8983 48.216 57.5783 48.696C57.2583 49.1653 56.8209 49.5493 56.2663 49.848C55.7116 50.136 55.0183 50.3973 54.1863 50.632L50.8263 51.64ZM59.7431 52.104H63.0551V55H59.7431V52.104Z" fill="white"/>
</g>
</svg>
