<svg width="29" height="29" viewBox="0 0 29 29" fill="none" xmlns="http://www.w3.org/2000/svg">
<path d="M26.4107 11.9107H17.6071C17.3212 11.9107 17.0893 11.6788 17.0893 11.3929V2.58929C17.0893 1.15936 15.9299 0 14.5 0C13.0701 0 11.9107 1.15936 11.9107 2.58929V11.3929C11.9107 11.6788 11.6788 11.9107 11.3929 11.9107H2.58929C1.15936 11.9107 0 13.0701 0 14.5C0 15.9299 1.15936 17.0893 2.58929 17.0893H11.3929C11.6788 17.0893 11.9107 17.3212 11.9107 17.6071V26.4107C11.9107 27.8406 13.0701 29 14.5 29C15.9299 29 17.0893 27.8406 17.0893 26.4107V17.6071C17.0893 17.3212 17.3212 17.0893 17.6071 17.0893H26.4107C27.8406 17.0893 29 15.9299 29 14.5C29 13.0701 27.8406 11.9107 26.4107 11.9107Z" fill="#FF583D"/>
</svg>
